<svg width="75" height="73" viewBox="0 0 75 73" fill="none" xmlns="http://www.w3.org/2000/svg">
<g clip-path="url(#clip0_103_626)">
<path d="M34.1231 72.1595C30.7589 72.1595 27.3941 72.1272 24.0302 72.1672C19.2468 72.2241 14.464 72.3599 9.68061 72.4066C8.11299 72.422 6.54229 72.268 4.97344 72.185C4.76335 72.1724 4.55467 72.1417 4.34999 72.0925C0.563091 71.2125 -0.676862 68.7114 1.08379 65.2607C1.92974 63.6283 2.89546 62.0603 3.97311 60.5702C10.1163 51.9695 16.4861 43.5415 23.4144 35.5497C23.691 35.2319 23.9331 34.8845 24.222 34.5802C24.5839 34.2111 24.8604 33.7672 25.0323 33.2797C25.2042 32.7922 25.2673 32.2727 25.217 31.7585C25.1158 29.4001 25.314 27.0306 25.3475 24.6653C25.4327 18.6195 25.4841 12.5731 25.5754 6.52702C25.596 5.16319 25.733 3.80083 25.7997 2.43732C25.8545 1.32062 26.4944 0.712944 27.5155 0.467657C28.1211 0.295876 28.7449 0.196454 29.3739 0.171387C34.1074 0.189522 38.841 0.199633 43.571 0.307215C46.2279 0.368691 46.8802 1.00894 47.096 3.6856C47.3708 7.09041 47.5715 10.5032 47.7267 13.916C47.9892 19.6922 48.2117 25.4702 48.394 31.2498C48.4248 32.2254 48.963 32.7836 49.5258 33.399C52.8605 37.0466 56.2687 40.6306 59.5155 44.3539C64.3887 49.9405 69.0777 55.6835 73.2553 61.8187C73.8949 62.775 74.3763 63.8281 74.6806 64.9374C75.3455 67.3411 74.5217 69.2634 72.216 70.2399C70.6484 70.9039 68.9077 71.2174 67.2138 71.5109C62.5795 72.3144 57.8963 72.2013 53.2137 72.1589C46.851 72.1014 40.4867 72.1445 34.1234 72.1445L34.1231 72.1595ZM5.0647 67.2876C6.49695 67.9494 8.07343 68.2377 9.64714 68.1255C14.1096 67.9598 18.5794 68.001 23.0465 67.9524C26.6736 67.9131 30.2989 67.8212 33.9245 67.8295C36.6043 67.8353 39.2831 68.0053 41.9628 68.0296C46.4311 68.0702 50.9019 67.981 55.3684 68.0806C59.6769 68.1885 63.9873 67.9632 68.2607 67.4069C71.5235 66.9744 71.9391 66.2782 70.0355 63.6203C67.3764 59.9072 64.5513 56.3136 61.8166 52.654C61.0755 51.6624 60.3648 50.7301 58.894 51.0344C58.5694 51.1017 58.1831 50.8906 57.829 50.7928C56.1581 50.3317 54.4742 49.9103 52.8221 49.3893C49.8264 48.4445 46.9143 48.6867 44.0431 49.8584C43.3527 50.1104 42.6759 50.4 42.0166 50.7249C38.612 52.5691 34.9653 52.7207 31.275 52.1324C28.8984 51.7272 26.5468 51.1866 24.2318 50.5131C20.4225 49.4487 16.3091 50.7759 14.0397 53.953C11.9025 56.945 9.74876 59.9259 7.66658 62.9557C6.74876 64.291 5.98929 65.7356 5.0647 67.2876ZM28.2637 3.51651C28.382 6.26323 28.4911 8.82894 28.6039 11.3946C28.8735 17.5394 29.0499 23.6897 29.4584 29.8258C29.5665 31.1336 29.4142 32.4498 29.0102 33.698C28.6063 34.9466 27.9588 36.1027 27.1052 37.0992C26.7397 37.547 26.3982 38.0139 26.0373 38.4664C23.9428 41.0997 21.8486 43.7327 19.7546 46.3657C19.5216 46.6598 19.3495 47.0019 19.0618 47.4615C21.1942 47.0385 23.394 47.0954 25.5015 47.6287C27.5246 48.1887 29.5806 48.6224 31.6573 48.927C34.5445 49.3159 37.4203 49.3002 40.1102 47.8358C41.1891 47.2915 42.3024 46.8181 43.4428 46.4188C46.4618 45.2573 49.5596 44.9339 52.7256 45.699C54.0246 46.0131 55.3075 46.3995 56.5955 46.753C54.8108 44.3917 52.91 42.2213 50.9729 40.0832C49.2086 38.1363 47.4771 36.1488 45.5858 34.3325C44.7541 33.5333 44.2789 32.7338 44.2401 31.6319C44.1402 28.7946 44.025 25.9578 43.9558 23.1201C43.823 17.5477 43.7256 11.9743 43.5974 6.40155C43.5759 5.46774 43.4714 4.5358 43.3991 3.51531L28.2637 3.51651Z" fill="#CF0DD3"/>
</g>
<defs>
<clipPath id="clip0_103_626">
<rect width="75" height="72.541" fill="white"/>
</clipPath>
</defs>
</svg>
