<svg width="80" height="76" viewBox="0 0 80 76" fill="none" xmlns="http://www.w3.org/2000/svg">
<path d="M51.8977 21.158C53.5862 20.3987 55.1165 19.7043 56.6524 19.0229C57.4244 18.6802 58.1901 18.3114 58.9887 18.0423C61.0864 17.3361 62.0853 17.5768 63.3699 19.4175C64.5915 21.1462 65.6871 22.9605 66.6485 24.8465C69.2503 30.0327 71.7582 35.2663 74.2591 40.503C74.8524 41.7455 75.2662 43.074 75.771 44.3841C76.4106 44.3204 77.0573 44.2039 77.7044 44.2039C78.1002 44.1859 78.4924 44.2878 78.8297 44.496C79.1667 44.7045 79.4329 45.0099 79.594 45.3724C79.7986 45.7151 79.8821 46.1165 79.8308 46.5126C79.7795 46.9084 79.5961 47.2754 79.3108 47.5544C78.5154 48.2814 77.6142 48.8832 76.6375 49.3388C70.3451 52.2889 64.0212 55.1703 57.72 58.1016C55.5844 59.0953 53.5016 60.2046 51.3596 61.1838C51.0531 61.2885 50.788 61.4885 50.6032 61.7547C50.4188 62.0209 50.3239 62.3391 50.3334 62.663C50.2478 63.9901 50.0343 65.3062 49.6963 66.5922C49.0704 68.8259 47.7671 70.8103 45.9664 72.2719C44.1653 73.7338 41.9554 74.6007 39.6407 74.7537C37.8372 74.9452 36.0152 74.8676 34.2345 74.5246C26.7903 72.8457 23.9188 65.2545 28.2522 58.9795C28.6979 58.3342 29.2002 57.7282 29.7988 56.9434C23.3711 41.2 16.3241 25.6409 9.2253 9.89295C8.3368 10.2399 7.5722 10.5453 6.80194 10.837C5.61503 11.2866 4.43946 11.7758 3.22883 12.1496C2.66354 12.3649 2.0459 12.4019 1.45892 12.2557C0.871512 12.0168 0.396794 11.5637 0.130798 10.9881C-0.126193 10.3205 0.343183 9.69532 1.02425 9.41037C1.80301 9.08364 2.64796 8.90024 3.40619 8.53493C5.14849 7.69529 6.88194 6.8298 8.56972 5.88679C10.4221 4.8521 11.7322 5.10817 12.8175 6.98817C13.5711 8.29437 14.1697 9.68962 14.8437 11.0422C14.9481 11.2514 15.0851 11.4444 15.2777 11.7612C15.9003 11.478 16.4904 11.2253 17.0706 10.9499C24.1715 7.5761 31.2621 4.18028 38.3759 0.83443C40.7037 -0.260436 41.9062 0.101338 43.2258 2.31656C44.1416 3.8806 44.9646 5.49716 45.691 7.15773C47.4881 11.1857 49.2117 15.2465 50.9741 19.2904C51.2131 19.8388 51.5048 20.3661 51.8977 21.158ZM60.6411 22.2452C49.0304 27.1687 38.0726 32.499 27.0618 37.8503L34.0097 53.9505C39.2842 52.7073 44.2103 53.4712 48.5451 57.1299L71.3752 46.4567L60.6411 22.2452ZM47.3448 23.1927C44.9423 16.9417 42.4301 10.8387 39.6832 4.78562L16.9018 15.3024C20.0756 21.5828 22.1949 28.1874 25.3534 34.1938L47.3448 23.1927ZM36.9756 70.4138C41.7543 70.4266 44.589 68.3278 45.428 64.1544C45.9943 61.3307 45.1356 59.6368 42.4895 58.5289C41.3214 58.04 40.1005 57.679 38.9108 57.2411C35.5922 56.0156 34.7616 56.2096 32.5103 58.9084C31.9218 59.5976 31.4151 60.3526 31.0002 61.1583C30.2872 62.5884 29.9382 64.1094 30.3205 65.7246C31.0324 68.7399 33.3885 70.4036 36.9738 70.4131L36.9756 70.4138Z" fill="#157348"/>
<path d="M54.8963 31.3647C53.9052 31.0854 53.0744 30.8637 52.7346 29.9441C52.5555 29.5479 52.5314 29.0988 52.6673 28.6857C52.8036 28.2727 53.09 27.926 53.4694 27.714C54.5572 27.0689 55.7116 26.5437 56.9123 26.1474C57.3816 25.9954 57.8903 26.0185 58.3441 26.2125C58.7976 26.4066 59.1657 26.7585 59.3799 27.203C59.5778 27.6243 59.6075 28.1054 59.4627 28.5478C59.3179 28.9903 59.01 29.3608 58.6011 29.5838C57.4478 30.3088 56.1385 30.7838 54.8963 31.3647Z" fill="#157348"/>
<path d="M34.2455 12.7375C33.2925 12.4384 32.443 12.3227 32.0639 11.3924C31.883 11.001 31.8523 10.5568 31.9775 10.1443C32.1028 9.73174 32.3753 9.37952 32.7432 9.15478C33.7893 8.47453 34.9314 7.95503 36.1315 7.61354C36.581 7.50473 37.0546 7.56554 37.4621 7.78412C37.8695 8.00271 38.1821 8.36377 38.3399 8.79835C38.5484 9.21184 38.5906 9.68947 38.4578 10.133C38.3251 10.5767 38.0277 10.9527 37.6267 11.1839C36.5725 11.8225 35.3789 12.2299 34.2455 12.7375Z" fill="#157348"/>
</svg>
