<svg width="75" height="69" viewBox="0 0 75 69" fill="none" xmlns="http://www.w3.org/2000/svg">
<g clip-path="url(#clip0_103_695)">
<path d="M3.56037 39.664C1.59098 36.2541 0.41156 32.4459 0.108871 28.52C-0.606897 19.0906 2.32523 11.0985 9.82897 5.08641C13.1911 2.39734 17.3757 0.946429 21.6808 0.977018C23.9133 0.949134 26.1438 1.12335 28.3449 1.49761C32.2778 2.19129 35.956 3.54965 38.739 6.69841C40.2285 5.75515 41.6482 4.83281 43.0909 3.94775C46.3716 1.93232 50.0746 0.70515 53.9096 0.362665C59.3407 -0.144598 63.9303 1.86172 67.8786 5.45892C73.4342 10.521 75.2298 16.9604 74.6659 24.2535C74.3382 28.1312 73.3053 31.9166 71.618 35.4232C71.4624 35.7546 71.3401 36.1019 71.1751 36.5096C71.5589 36.691 71.9289 36.9008 72.2818 37.1367C73.122 37.7902 73.0399 38.6659 72.0804 39.1635C71.7039 39.3633 71.2925 39.4888 70.8683 39.5329C69.5753 39.6416 68.8302 40.3866 68.1135 41.4167C63.7137 47.7092 58.4995 53.3914 52.6075 58.315C49.5141 60.9167 46.2935 63.3699 43.0803 65.824C41.993 66.588 40.8583 67.282 39.6832 67.9022C39.138 68.2483 38.5081 68.4378 37.8624 68.45C37.2166 68.4624 36.5799 68.2965 36.0219 67.9713C34.6912 67.2089 33.448 66.2927 32.1767 65.4285C30.6379 64.3819 29.1454 63.2631 27.571 62.2744C20.591 57.8908 14.1684 52.835 8.66697 46.6695C7.60545 45.4797 6.63257 44.206 5.69087 42.9182C5.53116 42.6472 5.29919 42.4262 5.02088 42.2796C4.7426 42.133 4.429 42.0668 4.11524 42.0885C3.31719 42.0885 2.52029 42.0288 1.73114 41.9099C1.08664 41.834 0.575944 41.4895 0.600218 40.7961C0.626359 40.0446 1.14268 39.6817 1.88552 39.6665C2.35762 39.6562 2.83216 39.664 3.56037 39.664ZM34.4376 37.2366C35.9236 36.2096 37.5381 36.1536 39.2146 36.3615C40.5313 36.551 41.8585 36.6593 43.1883 36.6851C50.5343 36.682 57.8802 36.6142 65.2259 36.6104C66.2083 36.6104 66.7508 36.2249 67.2238 35.3967C70.0069 30.5257 71.4979 25.342 71.2122 19.6965C70.8596 12.7255 67.4466 7.77461 61.2624 4.68343C59.2408 3.6906 56.9824 3.28106 54.7408 3.50083C51.5983 3.73482 48.5392 4.62144 45.7582 6.10404C44.0279 7.03765 42.3608 8.08955 40.6595 9.07824C39.0515 10.0119 37.9909 9.8983 36.6717 8.59498C35.3774 7.2395 33.7505 6.24648 31.9533 5.71473C29.9576 5.17386 27.9388 4.59281 25.8939 4.38057C19.6316 3.73046 14.0165 5.24481 9.66994 10.056C2.85459 17.6011 1.67202 28.6246 6.19474 37.4588C6.50252 38.0603 6.88623 38.623 7.19961 39.1449C9.87098 38.8318 10.2858 38.5713 11.6641 36.6117C12.2695 35.6743 12.9514 34.7887 13.7028 33.964C14.9495 32.7027 16.3627 32.937 17.2608 34.4802C17.6263 35.2001 17.9542 35.9385 18.2433 36.6926C18.4969 35.9603 18.679 35.4845 18.8274 34.9987C19.2653 33.5768 19.5834 32.1045 20.156 30.7414C20.5843 29.6628 21.2101 28.6737 22.0014 27.8249C23.2904 26.5178 24.8672 26.8619 25.5783 28.5471C26.0259 29.6255 26.3288 30.7584 26.4792 31.9162C26.8717 34.868 27.1397 37.8363 27.4724 40.7961C27.5533 41.2486 27.6586 41.6964 27.7879 42.1374C28.2429 40.6726 28.5261 39.4222 29.0265 38.2657C29.3905 37.4445 29.9099 36.7013 30.556 36.077C31.4734 35.1917 32.4652 35.2695 33.4 36.1181C33.7489 36.4362 34.0458 36.8102 34.4376 37.2366ZM23.8008 30.2886L23.3166 30.2354C23.0856 30.8746 22.8242 31.5051 22.6294 32.1552C22.0805 33.9876 21.607 35.8443 21.0067 37.6592C20.7036 38.6214 20.2717 39.5382 19.723 40.385C18.9824 41.4845 17.7003 41.4773 16.9176 40.4037C16.5183 39.7804 16.2043 39.1066 15.984 38.3999C15.7727 37.8328 15.6672 37.226 15.4652 36.4446C14.4886 37.7 13.7968 38.9603 12.7664 39.8115C11.7039 40.6894 10.3126 41.1689 8.89225 41.9133C10.208 43.4361 11.5064 45.1187 12.9864 46.6178C17.8808 51.5952 23.4088 55.9069 29.4279 59.4425C31.4868 60.65 33.448 62.0239 35.5072 63.2311C36.5924 63.8672 37.821 64.1252 38.9802 63.35C40.3934 62.4048 41.7795 61.4168 43.1504 60.4122C49.5733 55.7466 55.4444 50.3659 60.6509 44.3734C61.8537 42.9798 62.9902 41.529 64.3022 39.9276C63.973 39.8532 63.64 39.7968 63.3045 39.7589C54.9073 39.4788 46.4805 39.9244 38.1191 38.7129C37.5437 38.6793 36.9695 38.7948 36.4517 39.0484C35.6964 39.3683 34.9358 40.2195 34.2932 40.1171C33.5675 40.0016 32.97 39.0808 32.2259 38.431C31.9981 39.0898 31.7049 39.7691 31.5313 40.4771C31.2026 41.8194 30.9985 43.1933 30.6348 44.5246C30.4113 45.4527 30.055 46.3436 29.5767 47.1699C28.695 48.5759 27.0058 48.4931 26.2515 47.0258C25.7607 46.142 25.4172 45.1838 25.2344 44.1895C24.8327 41.4058 24.5653 38.6021 24.2778 35.8029C24.0889 33.9671 23.9576 32.1266 23.8008 30.2886Z" fill="#BB2D3B"/>
</g>
<defs>
<clipPath id="clip0_103_695">
<rect width="75" height="68.4647" fill="white"/>
</clipPath>
</defs>
</svg>
