<svg width="75" height="80" viewBox="0 0 75 80" fill="none" xmlns="http://www.w3.org/2000/svg">
<g clip-path="url(#clip0_103_639)">
<path d="M35.1638 16.1278V11.3225C33.566 10.6378 32.0964 9.67293 31.5117 7.80739C31.1709 6.61733 31.2373 5.34742 31.7007 4.1995C32.5733 1.73917 35.7133 -0.0999574 38.5695 0.164173C40.872 0.377107 42.4434 1.89772 42.7724 4.23054C43.345 8.28869 42.2924 10.237 38.6435 11.6571C38.5845 12.6214 38.5215 13.6528 38.4387 15.0044C39.4144 14.2661 40.1402 13.6899 40.8941 13.1529C41.9572 12.3418 43.061 11.5855 44.201 10.8869C47.8858 8.79605 51.4515 9.19583 54.9022 11.5215C56.4723 12.5796 58.0629 13.6104 59.6794 14.5962C62.5916 16.3753 65.8551 17.5024 69.2445 17.9001C70.1282 18.0155 71.0017 18.199 71.8571 18.4492C74.9396 19.3231 75.715 22.088 73.4262 24.2969C70.256 27.3569 66.3319 28.9195 62.0148 29.3405C57.6149 29.7389 53.1795 29.4258 48.879 28.4134C45.8891 27.7362 42.8813 27.1384 39.879 26.5179C39.2901 26.3959 38.6895 26.3314 38.022 26.2293V41.1314C40.2984 40.2575 42.3361 39.5469 43.7559 37.8105C44.2649 37.1538 44.6242 36.3937 44.8085 35.5833C45.1316 34.2389 44.7469 33.8163 43.5325 33.1123C42.5311 32.5202 41.6001 31.816 40.7578 31.0133C40.4405 30.7296 40.2279 30.3475 40.1539 29.9284C40.0802 29.5092 40.1493 29.0774 40.3505 28.7024C40.5064 28.3054 40.7976 27.9765 41.1729 27.7742C41.5483 27.5718 41.9829 27.509 42.4003 27.597C43.3525 27.7838 44.442 28.0303 45.1395 28.6342C50.322 33.1233 49.4135 39.047 45.0221 42.3888C44.1416 43.0599 43.1722 43.6181 42.1124 44.3146C42.6113 44.481 43.0121 44.6189 43.4167 44.7483C45.4033 45.3317 47.2473 46.3198 48.833 47.6505C51.4714 49.9586 51.7512 52.9067 49.5785 55.6481C47.6546 58.0768 45.0821 59.6127 42.2542 60.7608C41.4446 61.0895 40.617 61.3736 39.5833 61.7577C40.3287 62.2902 40.9202 62.6685 41.4615 63.1083C43.4878 64.7548 44.755 66.7328 44.1394 69.4921C43.976 70.2291 43.6564 70.922 43.2022 71.525C42.7483 72.1276 42.1701 72.6262 41.5072 72.9865C40.7644 73.429 40.0939 73.9925 39.28 74.5814C40.2563 75.0281 41.0409 75.3151 41.7508 75.7338C42.384 76.1085 42.9703 76.6524 42.6237 77.5077C42.2872 78.3382 41.5251 78.4455 40.7875 78.2153C39.5233 77.8207 38.2913 77.3244 36.9664 76.8421C36.5484 77.8944 36.5842 79.4486 35.1129 79.4463C34.4324 79.4463 33.7535 78.5597 32.9001 77.9515C32.4675 78.1074 31.7569 78.41 31.0193 78.6151C30.4085 78.785 29.7276 78.7833 29.4309 78.0953C29.1403 77.4213 29.5747 76.8999 30.1013 76.5412C30.8752 76.0142 31.6933 75.5521 32.3083 75.1752C30.7972 74.3192 29.2063 73.5258 27.7285 72.5593C23.9133 70.0641 24.4522 66.0157 26.6112 63.4348C26.9321 63.0513 27.2868 62.6962 27.7593 62.1832C24.4659 60.3314 21.6196 58.0846 21.5733 53.9531C21.5286 49.9452 23.7485 47.18 27.1545 45.0617C26.6979 44.6906 26.3524 44.447 26.0508 44.1578C25.3379 43.5373 24.6709 42.8658 24.0551 42.1485C21.9557 39.4445 21.7518 36.5857 23.4433 33.5724C24.8455 31.0724 26.9467 29.4227 29.4996 28.2749C30.5943 27.7828 31.451 27.9898 32.0308 28.8021C32.1808 29.0065 32.2881 29.2391 32.3464 29.4858C32.4047 29.7326 32.4127 29.9885 32.3701 30.2385C32.3275 30.4884 32.2352 30.7272 32.0985 30.9407C31.9618 31.1542 31.7835 31.338 31.5743 31.4813C30.7239 32.1106 29.7981 32.631 28.8185 33.0304C28.1405 33.2841 27.5332 33.6966 27.0478 34.2337C26.5624 34.7707 26.2132 35.4164 26.0293 36.1165C25.8787 36.5958 25.8271 37.1006 25.8775 37.6002C25.9279 38.1001 26.0794 38.5843 26.3227 39.0236C27.5341 41.2628 29.6161 42.3399 31.9245 42.904C32.7371 43.1026 33.732 42.5564 34.8195 42.3105C34.9607 37.0804 35.0999 31.9287 35.245 26.5561C34.6212 26.5646 33.9984 26.6075 33.3791 26.6845C28.8791 27.5053 24.3821 28.327 19.8922 29.1954C15.8177 29.9822 11.743 30.5679 7.60692 29.6865C5.40583 29.2176 3.29204 28.5289 1.53802 27.0452C0.555843 26.2137 -0.202973 25.2103 0.295288 23.8495C0.519279 23.1706 0.940863 22.574 1.50585 22.1359C2.62243 21.4048 3.81214 20.7922 5.05587 20.3079C9.35272 18.6227 13.3143 16.4043 16.7624 13.3088C17.5091 12.6383 18.2997 12.0159 19.0806 11.3849C20.7509 10.0342 22.6291 9.64163 24.7353 10.0704C27.8983 10.7138 30.444 12.5098 32.9699 14.3525C33.6713 14.8635 34.3251 15.4456 35.1638 16.1278ZM37.8857 23.2815C40.737 23.7149 43.3805 24.0641 46.0052 24.5271C50.3953 25.3049 54.7675 26.1028 59.2678 25.9488C62.6229 25.847 65.8933 24.8698 68.754 23.1142C69.1499 22.8281 69.5259 22.5155 69.8793 22.1786C68.5199 21.8949 67.3766 21.7202 66.2699 21.4147C61.5922 20.123 57.4055 17.8547 53.5362 14.9558C50.6493 12.7929 48.5966 12.7352 45.5692 14.6774C45.0974 14.9738 44.6422 15.2956 44.2052 15.6413C42.4711 17.0399 40.7839 18.4991 39.0071 19.8403C38.3076 20.3679 37.9532 20.9164 37.9854 21.7769C37.9789 22.2802 37.946 22.7827 37.8857 23.2824V23.2815ZM35.4348 21.3387C34.1419 20.3754 33.1277 19.7053 32.2111 18.921C30.0731 17.0465 27.6644 15.5057 25.0663 14.3506C23.2314 13.5572 21.565 13.6685 20.003 15.1551C15.6683 19.2804 10.6053 22.2495 4.9992 24.3162C4.44081 24.5716 3.89813 24.86 3.37401 25.18C4.47358 25.6609 5.21314 26.0412 5.98988 26.3144C9.45391 27.534 12.9902 27.4883 16.5367 26.7833C20.9063 25.9159 25.2576 24.9736 29.6259 24.1094C31.5231 23.7338 33.4411 23.4716 35.4348 23.1442V21.3387ZM34.6652 47.4624C32.187 47.4663 28.2769 49.3191 26.9422 51.0617C25.469 52.9856 25.4503 55.3661 27.2836 56.7066C28.8619 57.8616 30.7512 58.6367 32.5844 59.3805C33.5709 59.78 34.27 59.1555 34.3313 58.0667C34.4709 55.5728 34.57 53.0776 34.6574 50.5804C34.6955 49.5405 34.6652 48.4996 34.6652 47.4624ZM38.1703 57.9399C39.417 57.4726 40.5782 57.1057 41.6803 56.6088C43.4686 55.8024 45.1147 54.7579 46.3805 53.222C47.2652 52.1486 47.261 51.5218 46.253 50.6427C43.9796 48.6588 41.2362 47.989 38.1703 47.8031V57.9399ZM33.805 64.3312C31.7507 64.0641 29.4371 65.6029 29.0849 67.2418C28.9984 67.5963 29.0168 67.9683 29.1376 68.3124C29.2584 68.6567 29.4764 68.9583 29.7654 69.1811C30.8542 70.1039 31.9691 70.9954 33.2572 72.0506C33.4492 69.3441 33.6237 66.8861 33.805 64.3325V64.3312ZM39.3367 6.44428C39.3521 4.30482 38.5812 3.61619 36.2572 3.46326C35.2075 3.39413 34.4869 3.9292 34.2169 5.7817C33.9994 7.27192 35.2209 8.35779 37.1154 8.47779C38.8551 8.58964 39.326 8.15989 39.3367 6.44565V6.44428ZM37.465 65.7858C37.3515 66.8998 37.1953 67.9951 37.1389 69.0956C37.0828 70.2144 37.1265 71.3381 37.1265 72.6245C38.5007 71.8383 39.1088 70.7714 39.5627 69.5593C40.3323 67.5095 39.7982 66.485 37.465 65.7871V65.7858Z" fill="#0D21D3"/>
</g>
<defs>
<clipPath id="clip0_103_639">
<rect width="75" height="79.5652" fill="white"/>
</clipPath>
</defs>
</svg>
