<svg width="70" height="83" viewBox="0 0 70 83" fill="none" xmlns="http://www.w3.org/2000/svg">
<g clip-path="url(#clip0_103_692)">
<path d="M69.8343 73.1433C69.5179 73.8551 69.2061 74.5694 68.8839 75.2786C68.5104 76.1904 67.8957 76.9836 67.1057 77.5729C66.3157 78.1622 65.3804 78.5251 64.3997 78.6233C62.0225 78.9565 59.5997 78.5958 57.4229 77.5844C54.8772 76.3879 53.8079 74.4997 53.9907 71.6983C54.0911 70.0147 54.7039 68.4019 55.7464 67.0758C56.7893 65.7501 58.2118 64.7744 59.8246 64.2797C60.1704 64.1726 60.5014 64.0222 60.9675 63.8426C60.8893 59.8294 61.4557 55.7897 60.6 51.8086C60.3064 50.6397 59.7604 49.5497 58.9997 48.6154C58.1818 47.5694 56.9639 47.4369 55.8836 48.2226C54.95 48.8983 54.1404 49.7308 53.4907 50.6833C51.5561 53.5761 50.5411 56.8329 50.0754 60.2611C49.5661 64.0111 49.1772 67.7779 48.5993 71.5165C47.24 80.3147 38.0429 84.9397 30.0889 80.8536C26.2139 78.8633 24.4664 75.4497 24.39 71.2872C24.3207 67.5136 24.6304 63.7279 24.8865 59.9554C25.0718 57.2158 25.4489 54.4911 25.7228 51.7558C25.7489 51.3254 25.7513 50.894 25.73 50.4636C22.3903 49.2629 19.1125 48.2811 15.9968 46.9279C7.41854 43.1983 2.5985 36.4386 0.85029 27.3889C-0.0313151 22.9872 0.236786 18.4327 1.62858 14.1649C3.58394 8.20596 7.71137 4.28421 13.6324 2.251C14.1551 2.08384 14.6937 1.97147 15.2396 1.91566C16.0939 1.81066 16.8203 1.69636 17.4118 0.848148C18.14 -0.196494 19.184 -0.0379079 19.96 1.01495C20.3012 1.55908 20.4906 2.18443 20.509 2.82638C20.5274 3.46834 20.3741 4.10357 20.0647 4.66632C19.235 5.92882 18.2579 5.90743 16.7297 4.59493C11.694 5.26386 5.38212 10.6738 4.24176 17.717C3.55604 21.9549 3.53148 26.1921 4.98969 30.2089C7.10504 36.0365 10.785 40.6597 16.6971 43.1083C19.005 44.0644 21.4271 44.7426 23.7446 45.6765C27.6246 47.2404 31.4089 46.4551 34.6221 44.4136C41.0754 40.3144 46.6397 35.1299 50.155 28.1917C53.0121 22.5521 53.06 16.7906 49.8525 11.1849C47.65 7.33489 44.1739 5.25136 39.9832 4.18136C39.2689 3.99886 38.7197 4.09346 38.2332 4.75275C37.6904 5.48489 36.9072 5.85703 35.9757 5.47382C35.1018 5.11382 34.7132 4.36961 34.5672 3.47711C34.21 1.29032 34.6996 0.337787 36.4829 0.0485015C37.0157 -0.0382842 37.6257 0.212421 38.1729 0.38742C38.78 0.581348 39.3425 1.01239 39.9554 1.08811C45.8754 1.82168 50.3922 4.74346 53.3986 9.85275C57.2829 16.4545 56.9879 23.2481 53.91 30.0449C52.0143 34.231 49.0861 37.6829 45.7489 40.7726C43.2429 43.094 40.6243 45.2969 37.9889 47.4715C36.1836 48.9704 33.9158 49.8001 31.5693 49.8194C30.9708 49.8597 30.3748 49.9304 29.7836 50.0315C29.6933 50.2194 29.6259 50.4172 29.5829 50.6215C29.33 55.2572 29.0247 59.8915 28.8686 64.5308C28.7875 66.7872 28.8653 69.0469 29.1014 71.2926C29.6182 76.0879 32.8635 78.5047 37.6343 77.8158C41.7229 77.2254 43.7586 75.4133 44.4914 71.3279C45.0072 68.449 45.2468 65.5194 45.5786 62.6097C46.1579 57.5383 47.1247 52.5958 49.9854 48.2169C51.3686 46.099 53.1021 44.4669 55.5836 43.7644C57.7504 43.1501 59.6857 43.6761 61.4364 45.0226C64.2329 47.1736 65.1443 50.224 65.4432 53.539C65.8139 57.1561 65.5732 60.8104 64.7314 64.3479C64.9832 64.5165 65.2468 64.6665 65.5204 64.7972C67.6661 65.6372 69.0757 67.1083 69.5514 69.4083C69.5843 69.5679 69.74 69.7026 69.8372 69.8486L69.8343 73.1433ZM62.9964 75.1208C64.8489 74.9136 65.6 74.3415 66.0518 72.6304C66.4775 71.0186 65.8489 69.0947 64.6125 68.2247C62.9857 67.0819 61.3211 66.9033 60.0482 67.8654C59.3375 68.3947 58.7804 69.104 58.4343 69.9197C58.0882 70.7358 57.9657 71.629 58.0789 72.5083C58.1454 72.8215 58.2811 73.1161 58.4764 73.3704C58.6714 73.6244 58.9211 73.8315 59.2068 73.9769C60.4132 74.4894 61.7264 74.754 62.9964 75.1194V75.1208Z" fill="#D9A406"/>
<path d="M64.4218 71.119C64.4132 71.6422 64.2025 72.1415 63.8336 72.5122C63.465 72.8832 62.9668 73.0968 62.444 73.1082C61.8611 73.1104 61.3004 72.885 60.8815 72.4804C60.4622 72.0754 60.2175 71.5229 60.1997 70.9404C60.194 70.6804 60.2415 70.4215 60.3386 70.18C60.4357 69.9386 60.5811 69.7197 60.7657 69.5361C60.95 69.3522 61.17 69.2079 61.4118 69.1118C61.654 69.0154 61.9125 68.9693 62.1729 68.9761C62.4629 68.9629 62.7522 69.0086 63.0243 69.11C63.2961 69.2118 63.5447 69.3675 63.7547 69.5675C63.9647 69.7679 64.1322 70.0086 64.2468 70.275C64.3615 70.5418 64.4207 70.829 64.4218 71.119Z" fill="#D9A406"/>
</g>
<defs>
<clipPath id="clip0_103_692">
<rect width="70" height="82.5" fill="white"/>
</clipPath>
</defs>
</svg>
