<svg width="80" height="81" viewBox="0 0 80 81" fill="none" xmlns="http://www.w3.org/2000/svg">
<g clip-path="url(#clip0_103_604)">
<path d="M27.6428 80.1431C26.4166 80.072 25.2572 79.5613 24.3773 78.7042C22.0491 76.3999 19.663 74.1544 17.3098 71.8758C14.2425 68.9052 11.1153 65.9924 8.14364 62.9288C5.87013 60.5848 3.78955 58.0529 1.64459 55.5859C1.32819 55.1654 1.04423 54.7216 0.795061 54.258C-0.115025 52.8132 -0.0962507 51.3749 0.910244 50.0013C2.63742 47.6423 4.22986 45.1589 6.17516 42.9948C13.4098 34.9493 20.7159 26.9692 28.0937 19.0547C32.9614 13.8372 38.0036 8.78214 42.9749 3.66146C43.5448 3.07444 44.1424 2.50999 44.7633 1.977C46.9089 0.135976 49.5127 -0.279354 51.9116 1.18766C54.1438 2.55518 56.393 4.02525 58.2542 5.83961C64.4945 11.9223 70.5769 18.1678 76.6867 24.3835C77.5786 25.3114 78.3797 26.323 79.0778 27.4044C80.1513 29.0324 80.0692 30.0597 78.7602 31.5168C76.1404 34.4303 73.513 37.3397 70.8074 40.1732C61.0699 50.3705 51.2436 60.4809 40.9318 70.1059C38.0258 72.8187 35.1246 75.5377 32.1796 78.2067C31.0589 79.2221 29.8873 80.2464 27.6428 80.1431ZM48.5144 3.30421C47.8617 3.99069 47.4645 4.41329 47.0621 4.83072C38.1732 14.0464 29.2353 23.2157 20.4141 32.4953C15.9458 37.1961 11.6621 42.073 7.34822 46.9189C5.96258 48.4758 4.74996 50.1876 3.44364 51.8488C3.78094 52.3866 4.15157 52.9024 4.55359 53.3937C6.47154 55.4385 8.35882 57.5178 10.368 59.4707C13.9304 62.9332 17.5648 66.3223 21.1853 69.725C23.6811 72.0713 26.2067 74.3883 28.7298 76.7291C44.9192 61.8508 59.8942 45.9404 75.2966 30.1945C74.0764 28.8506 72.9718 27.5805 71.8094 26.3654C67.4874 21.8437 63.1544 17.3321 58.8111 12.8307C56.5414 10.4755 54.2983 8.09018 51.9472 5.81941C50.9595 4.86453 49.7192 4.17223 48.5144 3.30421Z" fill="#0BACCC"/>
<path d="M18.7351 62.4747C17.6239 62.5622 16.9966 61.7783 17.2879 60.9362C17.5123 60.3379 17.8578 59.7919 18.3027 59.3328C21.5543 55.887 24.7643 52.3981 28.1239 49.0583C37.4589 39.7765 46.8312 30.5326 56.2418 21.3267C56.7621 20.777 57.3703 20.3175 58.0414 19.9671C58.2688 19.8918 58.5112 19.8738 58.7467 19.9146C58.9826 19.9555 59.2049 20.0539 59.3936 20.2012C59.6469 20.4857 59.6702 21.1928 59.4982 21.587C59.2032 22.1569 58.8062 22.6681 58.3273 23.0953C53.2247 28.1708 48.09 33.215 42.9991 38.3003C35.5095 45.7837 28.0338 53.2812 20.5717 60.7923C19.9241 61.4398 19.2192 62.0333 18.7351 62.4747Z" fill="#0BACCC"/>
<path d="M36.5627 52.5519C36.2724 48.983 40.814 45.646 44.1565 47.834C45.6704 48.8254 46.8885 49.8405 47.7029 51.5174C49.2909 54.7875 46.9664 58.2042 43.5798 58.5991C40.6454 58.9403 36.4642 56.342 36.5627 52.5519ZM40.0977 52.0733C40.0516 53.4155 41.7302 54.8962 43.0379 54.6189C43.3709 54.5338 43.6694 54.3475 43.8926 54.0863C44.4697 53.4083 43.7278 50.3714 42.9176 49.9906C42.7562 49.9253 42.5835 49.8925 42.4092 49.8935C41.3117 49.8559 40.1367 50.9714 40.0977 52.0747V52.0733Z" fill="#0BACCC"/>
<path d="M32.9574 68.675C30.0972 68.7014 26.8517 65.9376 26.4548 63.2867C26.2785 62.1803 26.4993 61.0473 27.078 60.088C27.6567 59.1291 28.556 58.4053 29.6169 58.0456C33.4271 56.6983 37.077 59.379 38.1296 62.274C39.0558 64.8183 36.8052 68.048 33.8299 68.5831C33.4863 68.645 33.1338 68.6569 32.9574 68.675ZM34.6397 63.4224C34.665 62.5308 33.0412 60.5626 32.2292 60.5014C31.2001 60.4238 29.9973 61.4087 30.0302 62.3014C30.0681 63.3311 31.8176 64.9937 32.8822 65.0118C33.7373 65.0261 34.6158 64.2316 34.6391 63.4224H34.6397Z" fill="#0BACCC"/>
<path d="M57.4968 42.933C57.5101 43.694 57.357 44.4485 57.0486 45.1446C56.7402 45.8403 56.2838 46.4605 55.7115 46.962C55.1388 47.4632 54.4636 47.8338 53.7334 48.0478C53.0028 48.2615 52.2346 48.3138 51.4821 48.2003C50.2831 48.0728 49.1446 47.6099 48.197 46.8646C47.2489 46.1193 46.5306 45.1224 46.1238 43.9873C45.8626 43.3337 45.7634 42.6263 45.8349 41.9261C45.9064 41.2256 46.146 40.5528 46.534 39.9655C48.0482 37.4335 52.5511 35.4256 55.4811 38.6827C56.9836 40.3542 57.4804 41.0475 57.4968 42.933ZM54.0171 42.4297C54.0267 40.7402 53.4701 39.7843 52.4759 39.7829C51.0014 39.7829 49.3224 41.1354 49.3556 42.2995C49.385 43.3429 50.8599 44.628 52.0503 44.6492C53.1645 44.6687 54.0099 43.7145 54.0171 42.4297Z" fill="#0BACCC"/>
<path d="M62.6004 37.0185C60.7163 36.8486 58.9566 36.0055 57.6431 34.6438C56.1026 33.1054 55.8995 31.0773 56.9778 29.1806C58.1033 27.2024 61.0742 25.7098 63.2106 26.0493C65.5135 26.4151 68.0356 28.6999 68.5289 30.8674C69.2773 34.1471 66.7488 37.0295 62.6004 37.0185ZM62.5898 33.7658C64.2759 33.7162 64.9057 32.7491 64.48 31.4646C64.0356 30.1241 62.8684 29.5361 61.8014 28.8387C61.1611 28.4199 60.6315 28.5849 60.0759 29.0615C58.5953 30.3326 58.6496 31.9149 60.3423 32.9019C61.0623 33.2607 61.8151 33.5499 62.5898 33.7658Z" fill="#0BACCC"/>
<path d="M53.2178 18.8009C53.2862 20.1312 52.5709 21.1795 51.5559 22.0325C49.9467 23.3849 48.1074 24.0458 46.0369 23.3248C43.8168 22.5518 42.2168 21.053 41.6352 18.7234C41.468 18.0369 41.4745 17.3195 41.6547 16.6363C41.8352 15.953 42.1829 15.3256 42.667 14.8109C43.8127 13.4571 45.4431 12.6059 47.2089 12.4396C47.8451 12.3791 48.4868 12.4584 49.0892 12.672C50.9087 13.3192 53.2383 16.7968 53.2178 18.8009ZM47.6602 20.1022C48.9286 20.1087 49.9921 19.1265 49.9545 17.9825C49.9091 16.6095 49.0704 15.3473 48.1709 15.2978C46.894 15.2294 44.8458 16.6751 44.8257 17.6618C44.8065 18.6132 46.5299 20.0964 47.6602 20.1025V20.1022Z" fill="#0BACCC"/>
<path d="M36.9761 33.4595C34.0109 33.4954 31.4034 31.0951 31.4635 28.2561C31.5268 25.1939 34.3511 23.2148 37.6216 22.9269C39.9905 22.7183 42.3053 26.0171 42.5142 28.7173C42.7026 31.1337 39.9508 33.4233 36.9761 33.4595ZM37.9624 25.6893C37.4486 25.6701 36.9364 25.7633 36.4619 25.9622C35.9877 26.1611 35.5624 26.461 35.2157 26.8411C34.2756 27.8059 34.584 29.25 35.879 29.6011C36.5976 29.736 37.3405 29.6319 37.9942 29.3047C38.678 28.9823 38.8099 28.2267 38.5546 27.4749C38.3522 26.8807 38.159 26.2831 37.9624 25.6893Z" fill="#0BACCC"/>
<path d="M27.1006 45.1449C24.7563 45.12 22.229 43.2536 21.5114 41.054C21.2623 40.3634 21.2062 39.6177 21.349 38.8974C21.4918 38.1771 21.8283 37.5094 22.3221 36.9661C22.9086 36.2318 23.6667 35.653 24.5298 35.281C25.3928 34.909 26.3343 34.7555 27.2708 34.8335C29.7477 34.9829 32.423 37.9446 32.3491 40.4229C32.2667 43.1945 30.0636 45.1764 27.1006 45.1449ZM29.2226 39.5336C29.2462 38.2266 28.6736 37.6765 27.2777 37.6649C25.7734 37.6526 24.3857 38.6403 24.4278 39.6957C24.4657 40.641 25.9597 41.9641 27.0011 41.9743C28.2366 41.9863 29.1966 40.9306 29.2226 39.5336Z" fill="#0BACCC"/>
<path d="M21.3124 50.275C21.2803 53.0733 18.5645 54.969 15.7399 54.0798C14.8111 53.8046 13.9631 53.3081 13.2687 52.6329C12.5743 51.9574 12.0542 51.1235 11.7531 50.2028C11.5793 49.7054 11.5074 49.1782 11.5418 48.6521C11.5761 48.1263 11.7159 47.6128 11.9529 47.1423C12.19 46.6716 12.5194 46.2534 12.9215 45.9129C13.3236 45.5721 13.7901 45.316 14.2934 45.1594C15.0995 44.8945 15.9572 44.8247 16.7955 44.9563C17.6339 45.0883 18.4287 45.4175 19.1146 45.9174C19.8004 46.4172 20.3575 47.0733 20.7397 47.8309C21.1218 48.5888 21.3181 49.4264 21.3124 50.275ZM17.9347 49.8039C17.9583 48.8298 16.9873 47.4534 16.2779 47.4548C15.295 47.4565 14.505 48.0391 14.5002 48.7649C14.4951 49.688 15.705 50.9157 16.6848 50.9789C16.8453 50.9892 17.006 50.9663 17.1573 50.9116C17.3085 50.8572 17.447 50.7721 17.5641 50.662C17.6812 50.5519 17.7745 50.4189 17.8382 50.2716C17.9019 50.1239 17.9348 49.9649 17.9347 49.8039Z" fill="#0BACCC"/>
</g>
<defs>
<clipPath id="clip0_103_604">
<rect width="80" height="80.3419" fill="white"/>
</clipPath>
</defs>
</svg>
