<svg width="75" height="75" viewBox="0 0 75 75" fill="none" xmlns="http://www.w3.org/2000/svg">
<g clip-path="url(#clip0_103_652)">
<path d="M20.7107 18.3221C26.4977 18.4283 32.1002 18.496 37.7009 18.6428C44.0602 18.8095 50.4178 19.0396 56.7755 19.258C58.8976 19.3311 59.6747 19.9585 59.7591 22.0475C59.9517 26.8929 60.1508 31.7451 60.0878 36.5915C60.0308 40.9515 59.628 45.3075 59.3788 49.6651C59.3728 49.7713 59.3766 49.8784 59.3788 49.9849C59.4103 51.1676 59.0977 52.5195 59.5726 53.4828C60.0046 54.3589 61.3622 54.7352 62.1881 55.4716C63.7931 56.9051 65.3312 58.4158 66.8577 59.9338C68.1226 61.1918 68.0825 61.182 69.7303 60.461C70.7094 60.023 71.7238 59.6685 72.7625 59.4012C73.5204 59.2122 74.3151 59.3766 74.68 60.2111C75.0449 61.0456 74.8845 61.9282 74.1229 62.3738C72.3724 63.4144 70.5626 64.3522 68.7027 65.1825C67.8011 65.578 66.92 65.0127 66.2356 64.3352C64.8954 63.0078 63.5788 61.6566 62.2316 60.3362C61.4731 59.5928 60.6736 58.8914 59.6031 57.9047C59.7541 59.9451 59.8745 61.5709 59.9993 63.2596C60.4483 63.5171 60.9254 63.7588 61.3697 64.0509C64.0483 65.8118 64.6102 68.6773 62.7843 71.3136C61.3883 73.3304 59.4263 74.1592 57.0393 73.7464C54.9815 73.3906 53.4431 72.253 52.9341 70.124C52.4227 67.9834 53.2325 66.2165 54.7505 64.7303C55.0786 64.4388 55.4243 64.1675 55.7857 63.9186V57.9034H42.275C41.9914 59.0432 41.7679 60.2001 41.4112 61.3137C39.8791 66.0948 37.2661 70.0515 32.6914 72.4553C30.057 73.8394 27.1929 74.3297 24.2669 74.4189C17.8595 74.6149 11.8159 73.3452 7.13285 68.6811C1.21858 62.7904 -1.6229 55.7924 0.96775 47.3848C2.07479 43.7924 4.31213 40.8769 7.19994 38.5077C9.70961 36.449 12.4257 34.7039 15.5934 33.7859C15.8898 33.6702 16.1775 33.5332 16.4543 33.3762C16.4543 31.6922 16.4486 29.9704 16.4543 28.2489C16.4786 21.9943 16.4767 15.7384 16.563 9.48501C16.5778 8.40255 16.1621 7.90087 15.229 7.62388C12.0332 6.67494 8.83838 5.72332 5.64448 4.76912C5.23261 4.64622 4.80628 4.56082 4.40922 4.40136C3.06457 3.86187 2.40499 2.86195 2.69018 1.84567C3.00719 0.717203 4.14955 0.0869494 5.54777 0.362053C6.54861 0.559322 7.52959 0.862228 8.51499 1.13387C10.8999 1.79153 13.2961 2.41293 15.6595 3.14087C16.8395 3.51075 17.9841 3.98533 19.0796 4.55893C20.4573 5.27332 20.9596 6.46985 20.8805 8.04926C20.7192 11.278 20.6852 14.5137 20.608 17.7466C20.6216 17.9415 20.656 18.1345 20.7107 18.3221ZM56.2221 30.7989C44.098 31.6985 32.1594 30.8322 20.1223 30.8861C20.0795 31.6301 20.0411 32.2953 20.0026 32.9631C21.8735 33.2874 23.5541 33.7323 25.257 33.8477C33.414 34.401 40.3994 41.1088 42.0377 48.8634C42.3793 50.4803 42.5321 52.1373 42.7656 53.7327H55.7926C55.937 46.033 56.0778 38.5156 56.2221 30.7989ZM24.1298 69.8001C24.8909 69.715 26.3464 69.6239 27.7742 69.375C29.7145 69.0365 31.5113 68.2941 32.9044 66.8477C34.8002 64.8794 36.235 62.6161 36.8517 59.9199C37.5639 57.0365 37.7252 54.0441 37.3266 51.1008C36.4968 45.5581 33.4045 41.722 28.3172 39.6123C26.3139 38.7816 24.057 38.5704 21.9242 38.0417C17.2919 36.8933 13.5021 38.4406 10.1284 41.5711C7.78639 43.7439 5.89031 46.1883 5.16709 49.3361C3.72224 55.6244 6.02112 60.7786 10.3787 65.1315C13.955 68.7025 18.5824 69.6343 24.1298 69.8001ZM20.5465 27.076C32.4024 26.9244 44.1462 27.3772 55.9682 26.5844C56.0012 25.9929 56.0469 25.5195 56.0485 25.0459C56.0501 24.5776 56.0069 24.109 55.9855 23.6647C52.0247 23.0247 23.2518 22.1389 20.5474 22.5895L20.5465 27.076ZM57.6522 66.5297C56.6438 67.4332 56.2108 68.3889 56.6721 69.0548C56.8414 69.2719 57.0541 69.4509 57.2967 69.5801C57.5394 69.7096 57.8066 69.7865 58.0808 69.8057C58.4646 69.8039 59.0577 69.3034 59.1894 68.9026C59.612 67.6326 58.6136 67.1171 57.6531 66.5297H57.6522Z" fill="#0DD315"/>
<path d="M23.302 64.1596C21.3608 63.7597 19.3449 63.5728 17.4926 62.9205C11.6725 60.8722 8.9757 54.6642 11.3388 48.9733C12.7106 45.6708 15.2596 43.9165 18.7635 43.2018C21.2837 42.6365 23.8987 42.6459 26.4148 43.2292C28.7639 43.7905 30.8304 45.1836 32.2316 47.151C33.633 49.1183 34.2746 51.5262 34.0376 53.93C33.9629 54.8968 33.8101 55.8557 33.5804 56.7976C32.5225 60.7367 29.9196 63.0138 25.9197 63.7014C25.073 63.847 24.2102 63.899 23.3549 63.9941L23.302 64.1596ZM22.8098 60.0705L22.8607 59.878C23.612 59.8272 24.368 59.8149 25.1126 59.7176C26.6331 59.5175 27.9702 58.8169 28.6834 57.488C30.6901 53.7472 29.7255 49.2091 25.4375 47.8014C23.5366 47.2304 21.5995 46.7873 19.6392 46.4753C19.029 46.3515 18.3976 46.3802 17.8011 46.5588C17.2046 46.7375 16.6614 47.0608 16.2198 47.4998C13.3367 50.3419 13.2151 56.9356 18.3022 59.0092C19.7152 59.584 21.3025 59.7277 22.8098 60.0696V60.0705Z" fill="#0DD315"/>
</g>
<defs>
<clipPath id="clip0_103_652">
<rect width="75" height="74.6849" fill="white"/>
</clipPath>
</defs>
</svg>
